<?xml version="1.0" encoding="UTF-8" standalone="yes"?><svg xmlns="http://www.w3.org/2000/svg" xmlns:xlink="http://www.w3.org/1999/xlink" height="451px" style="width:1016px;height:451px;" version="1.1" viewBox="0 0 1016 451" width="1016px"><defs><filter height="300%" id="f1" width="300%" x="-1" y="-1"><feGaussianBlur result="blurOut" stdDeviation="2.0"/><feColorMatrix in="blurOut" result="blurOut2" type="matrix" values="0 0 0 0 0 0 0 0 0 0 0 0 0 0 0 0 0 0 .4 0"/><feOffset dx="4.0" dy="4.0" in="blurOut2" result="blurOut3"/><feBlend in="SourceGraphic" in2="blurOut3" mode="normal"/></filter></defs><g><rect fill="#FEFECE" filter="url(#f1)" height="60.8047" style="stroke: #A80036; stroke-width: 1.5;" width="141" x="580.5" y="8"/><ellipse cx="623.85" cy="24" fill="#B4A7E5" rx="11" ry="11" style="stroke: #A80036; stroke-width: 1.0;"/><path d="M619.7719,19.7656 L619.7719,17.6094 L627.1625,17.6094 L627.1625,19.7656 L624.6938,19.7656 L624.6938,27.8438 L627.1625,27.8438 L627.1625,30 L619.7719,30 L619.7719,27.8438 L622.2406,27.8438 L622.2406,19.7656 L619.7719,19.7656 Z "/><text fill="#000000" font-family="sans-serif" font-size="12" font-style="italic" lengthAdjust="spacingAndGlyphs" textLength="46" x="644.15" y="28.1543">Volume</text><line style="stroke: #A80036; stroke-width: 1.5;" x1="581.5" x2="720.5" y1="40" y2="40"/><line style="stroke: #A80036; stroke-width: 1.5;" x1="581.5" x2="720.5" y1="48" y2="48"/><ellipse cx="591.5" cy="59.9023" fill="#84BE84" rx="3" ry="3" style="stroke: #038048; stroke-width: 1.0;"/><text fill="#000000" font-family="sans-serif" font-size="11" font-style="italic" lengthAdjust="spacingAndGlyphs" textLength="115" x="600.5" y="62.2104">getVolume(): double</text><rect fill="#FEFECE" filter="url(#f1)" height="132.8281" style="stroke: #A80036; stroke-width: 1.5;" width="220" x="6" y="129"/><ellipse cx="96.75" cy="145" fill="#ADD1B2" rx="11" ry="11" style="stroke: #A80036; stroke-width: 1.0;"/><path d="M99.7188,150.6406 Q99.1406,150.9375 98.5,151.0859 Q97.8594,151.2344 97.1563,151.2344 Q94.6563,151.2344 93.3359,149.5859 Q92.0156,147.9375 92.0156,144.8125 Q92.0156,141.6875 93.3359,140.0313 Q94.6563,138.375 97.1563,138.375 Q97.8594,138.375 98.5078,138.5313 Q99.1563,138.6875 99.7188,138.9844 L99.7188,141.7031 Q99.0938,141.125 98.5,140.8516 Q97.9063,140.5781 97.2813,140.5781 Q95.9375,140.5781 95.25,141.6484 Q94.5625,142.7188 94.5625,144.8125 Q94.5625,146.9063 95.25,147.9766 Q95.9375,149.0469 97.2813,149.0469 Q97.9063,149.0469 98.5,148.7734 Q99.0938,148.5 99.7188,147.9219 L99.7188,150.6406 Z "/><text fill="#000000" font-family="sans-serif" font-size="12" lengthAdjust="spacingAndGlyphs" textLength="30" x="117.25" y="149.1543">Pave</text><line style="stroke: #A80036; stroke-width: 1.5;" x1="7" x2="225" y1="161" y2="161"/><polygon fill="none" points="17,167.9023,21,171.9023,17,175.9023,13,171.9023" style="stroke: #B38D22; stroke-width: 1.0;"/><text fill="#000000" font-family="sans-serif" font-size="11" lengthAdjust="spacingAndGlyphs" textLength="87" x="26" y="175.2104">largeur: double</text><polygon fill="none" points="17,180.707,21,184.707,17,188.707,13,184.707" style="stroke: #B38D22; stroke-width: 1.0;"/><text fill="#000000" font-family="sans-serif" font-size="11" lengthAdjust="spacingAndGlyphs" textLength="90" x="26" y="188.0151">hauteur: double</text><polygon fill="none" points="17,193.5117,21,197.5117,17,201.5117,13,197.5117" style="stroke: #B38D22; stroke-width: 1.0;"/><text fill="#000000" font-family="sans-serif" font-size="11" lengthAdjust="spacingAndGlyphs" textLength="109" x="26" y="200.8198">profondeur: double</text><line style="stroke: #A80036; stroke-width: 1.0;" x1="7" x2="225" y1="207.4141" y2="207.4141"/><ellipse cx="17" cy="219.3164" fill="#84BE84" rx="3" ry="3" style="stroke: #038048; stroke-width: 1.0;"/><text fill="#000000" font-family="sans-serif" font-size="11" lengthAdjust="spacingAndGlyphs" textLength="194" x="26" y="221.6245">Pave(l:double, h:double, p:double)</text><line style="stroke: #A80036; stroke-width: 1.0; stroke-dasharray: 1.0,2.0;" x1="7" x2="225" y1="228.2188" y2="228.2188"/><ellipse cx="17" cy="240.1211" fill="#84BE84" rx="3" ry="3" style="stroke: #038048; stroke-width: 1.0;"/><text fill="#000000" font-family="sans-serif" font-size="11" lengthAdjust="spacingAndGlyphs" textLength="114" x="26" y="242.4292">getVolume(): double</text><ellipse cx="17" cy="252.9258" fill="#84BE84" rx="3" ry="3" style="stroke: #038048; stroke-width: 1.0;"/><text fill="#000000" font-family="sans-serif" font-size="11" lengthAdjust="spacingAndGlyphs" textLength="95" x="26" y="255.2339">toString(): String</text><rect fill="#FEFECE" filter="url(#f1)" height="81.6094" style="stroke: #A80036; stroke-width: 1.5;" width="121" x="55.5" y="341"/><ellipse cx="96.15" cy="357" fill="#ADD1B2" rx="11" ry="11" style="stroke: #A80036; stroke-width: 1.0;"/><path d="M99.1188,362.6406 Q98.5406,362.9375 97.9,363.0859 Q97.2594,363.2344 96.5563,363.2344 Q94.0563,363.2344 92.7359,361.5859 Q91.4156,359.9375 91.4156,356.8125 Q91.4156,353.6875 92.7359,352.0313 Q94.0563,350.375 96.5563,350.375 Q97.2594,350.375 97.9078,350.5313 Q98.5563,350.6875 99.1188,350.9844 L99.1188,353.7031 Q98.4938,353.125 97.9,352.8516 Q97.3063,352.5781 96.6813,352.5781 Q95.3375,352.5781 94.65,353.6484 Q93.9625,354.7188 93.9625,356.8125 Q93.9625,358.9063 94.65,359.9766 Q95.3375,361.0469 96.6813,361.0469 Q97.3063,361.0469 97.9,360.7734 Q98.4938,360.5 99.1188,359.9219 L99.1188,362.6406 Z "/><text fill="#000000" font-family="sans-serif" font-size="12" lengthAdjust="spacingAndGlyphs" textLength="32" x="115.85" y="361.1543">Cube</text><line style="stroke: #A80036; stroke-width: 1.5;" x1="56.5" x2="175.5" y1="373" y2="373"/><line style="stroke: #A80036; stroke-width: 1.0;" x1="56.5" x2="175.5" y1="381" y2="381"/><ellipse cx="66.5" cy="392.9023" fill="#84BE84" rx="3" ry="3" style="stroke: #038048; stroke-width: 1.0;"/><text fill="#000000" font-family="sans-serif" font-size="11" lengthAdjust="spacingAndGlyphs" textLength="90" x="75.5" y="395.2104">Cube(a: double)</text><line style="stroke: #A80036; stroke-width: 1.0; stroke-dasharray: 1.0,2.0;" x1="56.5" x2="175.5" y1="401.8047" y2="401.8047"/><ellipse cx="66.5" cy="413.707" fill="#84BE84" rx="3" ry="3" style="stroke: #038048; stroke-width: 1.0;"/><text fill="#000000" font-family="sans-serif" font-size="11" lengthAdjust="spacingAndGlyphs" textLength="95" x="75.5" y="416.0151">toString(): String</text><rect fill="#FEFECE" filter="url(#f1)" height="124.8281" style="stroke: #A80036; stroke-width: 1.5;" width="184" x="261" y="133"/><ellipse cx="324.25" cy="149" fill="#ADD1B2" rx="11" ry="11" style="stroke: #A80036; stroke-width: 1.0;"/><path d="M327.2188,154.6406 Q326.6406,154.9375 326,155.0859 Q325.3594,155.2344 324.6563,155.2344 Q322.1563,155.2344 320.8359,153.5859 Q319.5156,151.9375 319.5156,148.8125 Q319.5156,145.6875 320.8359,144.0313 Q322.1563,142.375 324.6563,142.375 Q325.3594,142.375 326.0078,142.5313 Q326.6563,142.6875 327.2188,142.9844 L327.2188,145.7031 Q326.5938,145.125 326,144.8516 Q325.4063,144.5781 324.7813,144.5781 Q323.4375,144.5781 322.75,145.6484 Q322.0625,146.7188 322.0625,148.8125 Q322.0625,150.9063 322.75,151.9766 Q323.4375,153.0469 324.7813,153.0469 Q325.4063,153.0469 326,152.7734 Q326.5938,152.5 327.2188,151.9219 L327.2188,154.6406 Z "/><text fill="#000000" font-family="sans-serif" font-size="12" lengthAdjust="spacingAndGlyphs" textLength="49" x="344.75" y="153.1543">Cylindre</text><line style="stroke: #A80036; stroke-width: 1.5;" x1="262" x2="444" y1="165" y2="165"/><polygon fill="none" points="272,171.9023,276,175.9023,272,179.9023,268,175.9023" style="stroke: #B38D22; stroke-width: 1.0;"/><text fill="#000000" font-family="sans-serif" font-size="11" lengthAdjust="spacingAndGlyphs" textLength="78" x="281" y="179.2104">rayon: double</text><polygon fill="none" points="272,184.707,276,188.707,272,192.707,268,188.707" style="stroke: #B38D22; stroke-width: 1.0;"/><text fill="#000000" font-family="sans-serif" font-size="11" lengthAdjust="spacingAndGlyphs" textLength="90" x="281" y="192.0151">hauteur: double</text><line style="stroke: #A80036; stroke-width: 1.0;" x1="262" x2="444" y1="198.6094" y2="198.6094"/><ellipse cx="272" cy="210.5117" fill="#84BE84" rx="3" ry="3" style="stroke: #038048; stroke-width: 1.0;"/><text fill="#000000" font-family="sans-serif" font-size="11" lengthAdjust="spacingAndGlyphs" textLength="158" x="281" y="212.8198">Cylindre(r:double, h:double)</text><text fill="#000000" font-family="sans-serif" font-size="11" lengthAdjust="spacingAndGlyphs" textLength="8" x="281" y="225.6245">..</text><ellipse cx="272" cy="236.1211" fill="#84BE84" rx="3" ry="3" style="stroke: #038048; stroke-width: 1.0;"/><text fill="#000000" font-family="sans-serif" font-size="11" lengthAdjust="spacingAndGlyphs" textLength="114" x="281" y="238.4292">getVolume(): double</text><ellipse cx="272" cy="248.9258" fill="#84BE84" rx="3" ry="3" style="stroke: #038048; stroke-width: 1.0;"/><text fill="#000000" font-family="sans-serif" font-size="11" lengthAdjust="spacingAndGlyphs" textLength="95" x="281" y="251.2339">toString(): String</text><rect fill="#FEFECE" filter="url(#f1)" height="94.4141" style="stroke: #A80036; stroke-width: 1.5;" width="163" x="271.5" y="335"/><ellipse cx="332.75" cy="351" fill="#ADD1B2" rx="11" ry="11" style="stroke: #A80036; stroke-width: 1.0;"/><path d="M335.7188,356.6406 Q335.1406,356.9375 334.5,357.0859 Q333.8594,357.2344 333.1563,357.2344 Q330.6563,357.2344 329.3359,355.5859 Q328.0156,353.9375 328.0156,350.8125 Q328.0156,347.6875 329.3359,346.0313 Q330.6563,344.375 333.1563,344.375 Q333.8594,344.375 334.5078,344.5313 Q335.1563,344.6875 335.7188,344.9844 L335.7188,347.7031 Q335.0938,347.125 334.5,346.8516 Q333.9063,346.5781 333.2813,346.5781 Q331.9375,346.5781 331.25,347.6484 Q330.5625,348.7188 330.5625,350.8125 Q330.5625,352.9063 331.25,353.9766 Q331.9375,355.0469 333.2813,355.0469 Q333.9063,355.0469 334.5,354.7734 Q335.0938,354.5 335.7188,353.9219 L335.7188,356.6406 Z "/><text fill="#000000" font-family="sans-serif" font-size="12" lengthAdjust="spacingAndGlyphs" textLength="32" x="353.25" y="355.1543">Cone</text><line style="stroke: #A80036; stroke-width: 1.5;" x1="272.5" x2="433.5" y1="367" y2="367"/><line style="stroke: #A80036; stroke-width: 1.0;" x1="272.5" x2="433.5" y1="375" y2="375"/><ellipse cx="282.5" cy="386.9023" fill="#84BE84" rx="3" ry="3" style="stroke: #038048; stroke-width: 1.0;"/><text fill="#000000" font-family="sans-serif" font-size="11" lengthAdjust="spacingAndGlyphs" textLength="137" x="291.5" y="389.2104">Cone(r:double,h:double)</text><line style="stroke: #A80036; stroke-width: 1.0; stroke-dasharray: 1.0,2.0;" x1="272.5" x2="433.5" y1="395.8047" y2="395.8047"/><ellipse cx="282.5" cy="407.707" fill="#84BE84" rx="3" ry="3" style="stroke: #038048; stroke-width: 1.0;"/><text fill="#000000" font-family="sans-serif" font-size="11" lengthAdjust="spacingAndGlyphs" textLength="114" x="291.5" y="410.0151">getVolume(): double</text><ellipse cx="282.5" cy="420.5117" fill="#84BE84" rx="3" ry="3" style="stroke: #038048; stroke-width: 1.0;"/><text fill="#000000" font-family="sans-serif" font-size="11" lengthAdjust="spacingAndGlyphs" textLength="95" x="291.5" y="422.8198">toString(): String</text><rect fill="#FEFECE" filter="url(#f1)" height="107.2188" style="stroke: #A80036; stroke-width: 1.5;" width="140" x="480" y="142"/><ellipse cx="523.35" cy="158" fill="#ADD1B2" rx="11" ry="11" style="stroke: #A80036; stroke-width: 1.0;"/><path d="M526.3188,163.6406 Q525.7406,163.9375 525.1,164.0859 Q524.4594,164.2344 523.7563,164.2344 Q521.2563,164.2344 519.9359,162.5859 Q518.6156,160.9375 518.6156,157.8125 Q518.6156,154.6875 519.9359,153.0313 Q521.2563,151.375 523.7563,151.375 Q524.4594,151.375 525.1078,151.5313 Q525.7563,151.6875 526.3188,151.9844 L526.3188,154.7031 Q525.6938,154.125 525.1,153.8516 Q524.5063,153.5781 523.8813,153.5781 Q522.5375,153.5781 521.85,154.6484 Q521.1625,155.7188 521.1625,157.8125 Q521.1625,159.9063 521.85,160.9766 Q522.5375,162.0469 523.8813,162.0469 Q524.5063,162.0469 525.1,161.7734 Q525.6938,161.5 526.3188,160.9219 L526.3188,163.6406 Z "/><text fill="#000000" font-family="sans-serif" font-size="12" lengthAdjust="spacingAndGlyphs" textLength="45" x="543.65" y="162.1543">Sphere</text><line style="stroke: #A80036; stroke-width: 1.5;" x1="481" x2="619" y1="174" y2="174"/><rect fill="none" height="6" style="stroke: #C82930; stroke-width: 1.0;" width="6" x="488" y="182.9023"/><text fill="#000000" font-family="sans-serif" font-size="11" lengthAdjust="spacingAndGlyphs" textLength="78" x="500" y="188.2104">rayon: double</text><line style="stroke: #A80036; stroke-width: 1.0;" x1="481" x2="619" y1="194.8047" y2="194.8047"/><ellipse cx="491" cy="206.707" fill="#84BE84" rx="3" ry="3" style="stroke: #038048; stroke-width: 1.0;"/><text fill="#000000" font-family="sans-serif" font-size="11" lengthAdjust="spacingAndGlyphs" textLength="100" x="500" y="209.0151">Sphere(r: double)</text><line style="stroke: #A80036; stroke-width: 1.0; stroke-dasharray: 1.0,2.0;" x1="481" x2="619" y1="215.6094" y2="215.6094"/><ellipse cx="491" cy="227.5117" fill="#84BE84" rx="3" ry="3" style="stroke: #038048; stroke-width: 1.0;"/><text fill="#000000" font-family="sans-serif" font-size="11" lengthAdjust="spacingAndGlyphs" textLength="114" x="500" y="229.8198">getVolume(): double</text><ellipse cx="491" cy="240.3164" fill="#84BE84" rx="3" ry="3" style="stroke: #038048; stroke-width: 1.0;"/><text fill="#000000" font-family="sans-serif" font-size="11" lengthAdjust="spacingAndGlyphs" textLength="95" x="500" y="242.6245">toString(): String</text><rect fill="#FEFECE" filter="url(#f1)" height="107.2188" style="stroke: #A80036; stroke-width: 1.5;" width="194" x="655" y="142"/><ellipse cx="696.1" cy="158" fill="#ADD1B2" rx="11" ry="11" style="stroke: #A80036; stroke-width: 1.0;"/><path d="M699.0688,163.6406 Q698.4906,163.9375 697.85,164.0859 Q697.2094,164.2344 696.5063,164.2344 Q694.0063,164.2344 692.6859,162.5859 Q691.3656,160.9375 691.3656,157.8125 Q691.3656,154.6875 692.6859,153.0313 Q694.0063,151.375 696.5063,151.375 Q697.2094,151.375 697.8578,151.5313 Q698.5063,151.6875 699.0688,151.9844 L699.0688,154.7031 Q698.4438,154.125 697.85,153.8516 Q697.2563,153.5781 696.6313,153.5781 Q695.2875,153.5781 694.6,154.6484 Q693.9125,155.7188 693.9125,157.8125 Q693.9125,159.9063 694.6,160.9766 Q695.2875,162.0469 696.6313,162.0469 Q697.2563,162.0469 697.85,161.7734 Q698.4438,161.5 699.0688,160.9219 L699.0688,163.6406 Z "/><text fill="#000000" font-family="sans-serif" font-size="12" lengthAdjust="spacingAndGlyphs" textLength="104" x="715.9" y="162.1543">VolumeCompose</text><line style="stroke: #A80036; stroke-width: 1.5;" x1="656" x2="848" y1="174" y2="174"/><rect fill="none" height="6" style="stroke: #C82930; stroke-width: 1.0;" width="6" x="663" y="182.9023"/><text fill="#000000" font-family="sans-serif" font-size="11" lengthAdjust="spacingAndGlyphs" textLength="111" x="675" y="188.2104">elements: Volume[]</text><line style="stroke: #A80036; stroke-width: 1.0;" x1="656" x2="848" y1="194.8047" y2="194.8047"/><ellipse cx="666" cy="206.707" fill="#84BE84" rx="3" ry="3" style="stroke: #038048; stroke-width: 1.0;"/><text fill="#000000" font-family="sans-serif" font-size="11" lengthAdjust="spacingAndGlyphs" textLength="168" x="675" y="209.0151">VolumeCompose(v: Volume[])</text><line style="stroke: #A80036; stroke-width: 1.0; stroke-dasharray: 1.0,2.0;" x1="656" x2="848" y1="215.6094" y2="215.6094"/><ellipse cx="666" cy="227.5117" fill="#84BE84" rx="3" ry="3" style="stroke: #038048; stroke-width: 1.0;"/><text fill="#000000" font-family="sans-serif" font-size="11" lengthAdjust="spacingAndGlyphs" textLength="114" x="675" y="229.8198">getVolume(): double</text><ellipse cx="666" cy="240.3164" fill="#84BE84" rx="3" ry="3" style="stroke: #038048; stroke-width: 1.0;"/><text fill="#000000" font-family="sans-serif" font-size="11" lengthAdjust="spacingAndGlyphs" textLength="95" x="675" y="242.6245">toString(): String</text><rect fill="#FEFECE" filter="url(#f1)" height="120.0234" style="stroke: #A80036; stroke-width: 1.5;" width="211" x="796.5" y="322"/><ellipse cx="874.25" cy="338" fill="#ADD1B2" rx="11" ry="11" style="stroke: #A80036; stroke-width: 1.0;"/><path d="M877.2188,343.6406 Q876.6406,343.9375 876,344.0859 Q875.3594,344.2344 874.6563,344.2344 Q872.1563,344.2344 870.8359,342.5859 Q869.5156,340.9375 869.5156,337.8125 Q869.5156,334.6875 870.8359,333.0313 Q872.1563,331.375 874.6563,331.375 Q875.3594,331.375 876.0078,331.5313 Q876.6563,331.6875 877.2188,331.9844 L877.2188,334.7031 Q876.5938,334.125 876,333.8516 Q875.4063,333.5781 874.7813,333.5781 Q873.4375,333.5781 872.75,334.6484 Q872.0625,335.7188 872.0625,337.8125 Q872.0625,339.9063 872.75,340.9766 Q873.4375,342.0469 874.7813,342.0469 Q875.4063,342.0469 876,341.7734 Q876.5938,341.5 877.2188,340.9219 L877.2188,343.6406 Z "/><text fill="#000000" font-family="sans-serif" font-size="12" lengthAdjust="spacingAndGlyphs" textLength="47" x="894.75" y="342.1543">Matiere</text><line style="stroke: #A80036; stroke-width: 1.5;" x1="797.5" x2="1006.5" y1="354" y2="354"/><ellipse cx="807.5" cy="365.9023" fill="none" rx="3" ry="3" style="stroke: #038048; stroke-width: 1.0;"/><text fill="#000000" font-family="sans-serif" font-size="11" lengthAdjust="spacingAndGlyphs" text-decoration="underline" textLength="78" x="816.5" y="368.2104">BOIS: Matiere</text><line style="stroke: #000000; stroke-width: 1.0;" x1="816.5" x2="894.5" y1="370.2104" y2="370.2104"/><ellipse cx="807.5" cy="378.707" fill="none" rx="3" ry="3" style="stroke: #038048; stroke-width: 1.0;"/><text fill="#000000" font-family="sans-serif" font-size="11" lengthAdjust="spacingAndGlyphs" text-decoration="underline" textLength="86" x="816.5" y="381.0151">METAL: Matiere</text><line style="stroke: #000000; stroke-width: 1.0;" x1="816.5" x2="902.5" y1="383.0151" y2="383.0151"/><ellipse cx="807.5" cy="391.5117" fill="none" rx="3" ry="3" style="stroke: #038048; stroke-width: 1.0;"/><text fill="#000000" font-family="sans-serif" font-size="11" lengthAdjust="spacingAndGlyphs" text-decoration="underline" textLength="112" x="816.5" y="393.8198">PLASTIQUE: Matiere</text><line style="stroke: #000000; stroke-width: 1.0;" x1="816.5" x2="928.5" y1="395.8198" y2="395.8198"/><line style="stroke: #A80036; stroke-width: 1.0;" x1="797.5" x2="1006.5" y1="400.4141" y2="400.4141"/><rect fill="#F24D5C" height="6" style="stroke: #C82930; stroke-width: 1.0;" width="6" x="804.5" y="409.3164"/><text fill="#000000" font-family="sans-serif" font-size="11" lengthAdjust="spacingAndGlyphs" textLength="92" x="816.5" y="414.6245">Matiere(:double)</text><line style="stroke: #A80036; stroke-width: 1.0; stroke-dasharray: 1.0,2.0;" x1="797.5" x2="1006.5" y1="421.2188" y2="421.2188"/><ellipse cx="807.5" cy="433.1211" fill="#84BE84" rx="3" ry="3" style="stroke: #038048; stroke-width: 1.0;"/><text fill="#000000" font-family="sans-serif" font-size="11" lengthAdjust="spacingAndGlyphs" text-decoration="underline" textLength="185" x="816.5" y="435.4292">poids(:Volume, :Matiere): double</text><line style="stroke: #000000; stroke-width: 1.0;" x1="816.5" x2="1001.5" y1="437.4292" y2="437.4292"/><path d="M560.296,52.444 C476.338,66.042 348.877,90.824 243,129 C237.399,131.02 231.732,133.236 226.06,135.595 " fill="none" style="stroke: #A80036; stroke-width: 1.0; stroke-dasharray: 7.0,7.0;"/><polygon fill="none" points="559.292,45.516,580.14,49.308,561.478,59.344,559.292,45.516" style="stroke: #A80036; stroke-width: 1.0;"/><path d="M116,282.242 C116,302.71 116,323.608 116,340.877 " fill="none" style="stroke: #A80036; stroke-width: 1.0;"/><polygon fill="none" points="109,282.067,116,262.067,123,282.067,109,282.067" style="stroke: #A80036; stroke-width: 1.0;"/><path d="M565.965,77.59 C533.122,92.866 495.465,111.078 462,129 C456.453,131.971 450.791,135.091 445.107,138.292 " fill="none" style="stroke: #A80036; stroke-width: 1.0; stroke-dasharray: 7.0,7.0;"/><polygon fill="none" points="563.073,71.215,584.166,69.193,568.938,83.927,563.073,71.215" style="stroke: #A80036; stroke-width: 1.0;"/><path d="M353,278.391 C353,297.748 353,317.721 353,334.843 " fill="none" style="stroke: #A80036; stroke-width: 1.0;"/><polygon fill="none" points="346,278.192,353,258.192,360,278.192,346,278.192" style="stroke: #A80036; stroke-width: 1.0;"/><path d="M620.746,85.929 C609.268,103.544 596.118,123.724 584.294,141.87 " fill="none" style="stroke: #A80036; stroke-width: 1.0; stroke-dasharray: 7.0,7.0;"/><polygon fill="none" points="614.981,81.954,631.765,69.019,626.711,89.597,614.981,81.954" style="stroke: #A80036; stroke-width: 1.0;"/><path d="M659.969,69.019 C669.312,86.602 683.544,109.617 698.147,131.129 " fill="none" style="stroke: #A80036; stroke-width: 1.0;"/><polygon fill="#FFFFFF" points="705.558,141.87,705.4428,134.6598,698.743,131.993,698.8582,139.2032,705.558,141.87" style="stroke: #A80036; stroke-width: 1.0;"/><text fill="#000000" font-family="sans-serif" font-size="13" lengthAdjust="spacingAndGlyphs" textLength="7" x="654.097" y="88.9612">*</text><path d="M693.142,85.101 C706.012,102.909 719.535,123.439 730.568,141.87 " fill="none" style="stroke: #A80036; stroke-width: 1.0; stroke-dasharray: 7.0,7.0;"/><polygon fill="none" points="687.485,89.225,681.105,69.019,698.693,80.836,687.485,89.225" style="stroke: #A80036; stroke-width: 1.0;"/><path d="M726.554,51.248 C774.323,62.766 833.222,85.296 867,129 C909.475,183.956 912.975,266.481 909.355,321.97 " fill="none" style="stroke: #A80036; stroke-width: 1.0; stroke-dasharray: 7.0,7.0;"/><polygon fill="#A80036" points="721.673,50.1,729.5187,56.0536,726.5403,51.2443,731.3496,48.2659,721.673,50.1" style="stroke: #A80036; stroke-width: 1.0;"/></g></svg>